<mxfile host="app.diagrams.net" modified="2023-10-17T19:47:39.996Z" agent="Mozilla/5.0 (Windows NT 10.0; Win64; x64) AppleWebKit/537.36 (KHTML, like Gecko) Chrome/118.0.0.0 Safari/537.36 Edg/118.0.2088.46" etag="Q-ja6Iu9Gyu9JdcsT3V5" version="22.0.4" type="device">
  <diagram name="Seite-1" id="jDf52b-3_G7rbnwAMDgq">
    <mxGraphModel dx="1493" dy="854" grid="1" gridSize="10" guides="1" tooltips="1" connect="1" arrows="1" fold="1" page="1" pageScale="1" pageWidth="827" pageHeight="1169" math="0" shadow="0">
      <root>
        <mxCell id="0" />
        <mxCell id="1" parent="0" />
        <mxCell id="fSm7f8WHGzFXAWK38eye-1" value="" style="rounded=1;whiteSpace=wrap;html=1;fillColor=none;strokeWidth=30;" vertex="1" parent="1">
          <mxGeometry x="243" y="340" width="340" height="440" as="geometry" />
        </mxCell>
        <mxCell id="fSm7f8WHGzFXAWK38eye-3" value="" style="rounded=1;whiteSpace=wrap;html=1;fillColor=none;strokeWidth=30;" vertex="1" parent="1">
          <mxGeometry x="200" y="340" width="427" height="30" as="geometry" />
        </mxCell>
        <mxCell id="fSm7f8WHGzFXAWK38eye-4" value="" style="rounded=1;whiteSpace=wrap;html=1;fillColor=#000000;strokeWidth=30;" vertex="1" parent="1">
          <mxGeometry x="310" y="420" width="60" height="300" as="geometry" />
        </mxCell>
        <mxCell id="fSm7f8WHGzFXAWK38eye-5" value="" style="rounded=1;whiteSpace=wrap;html=1;fillColor=#000000;strokeWidth=30;" vertex="1" parent="1">
          <mxGeometry x="460" y="420" width="60" height="300" as="geometry" />
        </mxCell>
        <mxCell id="fSm7f8WHGzFXAWK38eye-6" value="" style="rounded=1;whiteSpace=wrap;html=1;fillColor=none;strokeWidth=30;" vertex="1" parent="1">
          <mxGeometry x="343" y="300" width="142" height="30" as="geometry" />
        </mxCell>
      </root>
    </mxGraphModel>
  </diagram>
</mxfile>
